  <svg
    width="32"
    height="32"
    viewBox="0 0 32 32"
    fill="none"
    xmlns="http://www.w3.org/2000/svg"
  >
    <g clipPath="url(#clip0_103_61)">
      <path
        d="M31.9999 16C31.9999 19.1645 31.0616 22.2579 29.3035 24.8891C27.5454 27.5203 25.0465 29.5711 22.1229 30.7821C19.1993 31.9931 15.9822 32.3099 12.8785 31.6926C9.77481 31.0752 6.92388 29.5513 4.68624 27.3137C2.4486 25.0761 0.924745 22.2251 0.307382 19.1214C-0.309982 16.0177 0.00687145 12.8007 1.21787 9.87707C2.42888 6.95345 4.47964 4.45459 7.11082 2.69649C9.74201 0.938384 12.8354 0 15.9999 0C20.2434 0 24.3131 1.68571 27.3137 4.68629C30.3142 7.68687 31.9999 11.7565 31.9999 16Z"
        fill="#F7931A"
      />
      <path
        fillRule="evenodd"
        clipRule="evenodd"
        d="M11.3716 7.30618L15.0487 8.2909L15.8705 5.22763L17.7091 5.72654L16.9193 8.66327L18.4189 9.06618L19.2102 6.09745L21.0807 6.59781L20.2749 9.58254C20.2749 9.58254 23.3294 10.2589 24.048 12.7433C24.7665 15.2276 22.4683 16.5324 21.7585 16.5818C21.7585 16.5818 24.4349 18.0494 23.5156 20.9367C22.5963 23.824 19.7745 24.3404 16.8058 23.6785L16 26.7738L14.1294 26.2734L14.9513 23.2262L13.4676 22.8218L12.6458 25.8909L10.7898 25.392L11.6131 22.3374L7.83853 21.3193L8.7898 19.2073C8.7898 19.2073 9.85453 19.4982 10.2574 19.5942C10.6603 19.6902 10.9193 19.2713 11.0327 18.8524C11.1462 18.4334 12.8553 11.4909 13.0167 10.9193C13.1782 10.3476 13.1127 9.90109 12.4349 9.72508C11.7571 9.54908 10.8349 9.27418 10.8349 9.27418L11.3716 7.30618ZM15.0807 16.5004L14.0625 20.5484C14.0625 20.5484 19.1113 22.3709 19.7571 19.8065C20.4029 17.2422 15.0807 16.5004 15.0807 16.5004ZM15.5491 14.5804L16.5483 10.8713C16.5483 10.8713 20.8713 11.6451 20.3389 13.7091C19.8065 15.7731 17.2582 14.9818 15.5491 14.5804Z"
        fill="white"
      />
    </g>
    <defs>
      <clipPath id="clip0_103_61">
        <rect width="32" height="32" fill="white" />
      </clipPath>
    </defs>
  </svg>