  <svg
    xmlns="http://www.w3.org/2000/svg"
    width="32"
    height="32"
    viewBox="0 0 32 33"
    fill="none"
  >
    <g clip-path="url(#clip0_103_10)">
      <path
        fillRule="evenodd"
        clipRule="evenodd"
        d="M15.9375 0.464844C19.102 0.464844 22.1954 1.40323 24.8266 3.16133C27.4578 4.91943 29.5085 7.41829 30.7195 10.3419C31.9305 13.2655 32.2474 16.4826 31.63 19.5863C31.0127 22.69 29.4888 25.5409 27.2512 27.7786C25.0135 30.0162 22.1626 31.54 19.0589 32.1574C15.9552 32.7748 12.7382 32.4579 9.81454 31.2469C6.89092 30.0359 4.39206 27.9852 2.63396 25.354C0.875853 22.7228 -0.0625305 19.6293 -0.0625305 16.4648C-0.0625305 12.2214 1.62318 8.15172 4.62376 5.15114C7.62434 2.15055 11.694 0.464844 15.9375 0.464844V0.464844Z"
        fill="white"
      />
      <path
        fillRule="evenodd"
        clipRule="evenodd"
        d="M15.9375 3.90048L20.1469 10.1899L24.3564 16.4808L15.9375 20.7223L7.51855 16.4648L11.728 10.1739L15.9375 3.90048ZM15.9375 22.4168L7.98546 18.1739L15.9375 29.0292L23.8895 18.1739L15.9375 22.4168Z"
        fill="#161514"
      />
      <path
        fillRule="evenodd"
        clipRule="evenodd"
        d="M15.9374 3.90048L20.1469 10.1739L24.3563 16.4648L15.9374 13.2867V3.90048Z"
        fill="#161514"
      />
      <path
        fillRule="evenodd"
        clipRule="evenodd"
        d="M15.9374 22.4169L23.9054 18.174L15.9374 29.0452V22.4169Z"
        fill="#161514"
      />
      <path
        fillRule="evenodd"
        clipRule="evenodd"
        d="M15.9374 13.2867L24.3563 16.4648L15.9374 20.7063V13.2867Z"
        fill="#161514"
      />
      <path
        fillRule="evenodd"
        clipRule="evenodd"
        d="M15.9375 3.90048L11.728 10.1739L7.51855 16.4648L15.9375 13.2867V3.90048Z"
        fill="#8C8C8C"
      />
      <path
        fillRule="evenodd"
        clipRule="evenodd"
        d="M15.9374 22.4169L7.98544 18.174L15.9374 29.0452V22.4169Z"
        fill="#8A8A8A"
      />
      <path
        fillRule="evenodd"
        clipRule="evenodd"
        d="M15.9375 13.2867L7.51855 16.4648L15.9375 20.7063V13.2867Z"
        fill="#353535"
      />
    </g>
    <defs>
      <clipPath id="clip0_103_10">
        <rect
          width="32"
          height="32"
          fill="white"
          transform="translate(0 0.464844)"
        />
      </clipPath>
    </defs>
  </svg>